<?xml version="1.0" encoding="UTF-8" standalone="no"?> <!-- Created with Vectornator for iOS (http://vectornator.io/) --><!DOCTYPE svg PUBLIC "-//W3C//DTD SVG 1.1//EN" "http://www.w3.org/Graphics/SVG/1.1/DTD/svg11.dtd">
<svg height="100%" style="fill-rule:nonzero;clip-rule:evenodd;stroke-linecap:round;stroke-linejoin:round;" xmlns:xlink="http://www.w3.org/1999/xlink" xmlns="http://www.w3.org/2000/svg" xml:space="preserve" width="100%" xmlns:vectornator="http://vectornator.io" version="1.1" viewBox="0 0 1200 1200">
<metadata>
<vectornator:setting key="DimensionsVisible" value="1"/>
<vectornator:setting key="PencilOnly" value="0"/>
<vectornator:setting key="SnapToPoints" value="0"/>
<vectornator:setting key="OutlineMode" value="0"/>
<vectornator:setting key="CMYKEnabledKey" value="0"/>
<vectornator:setting key="RulersVisible" value="1"/>
<vectornator:setting key="SnapToEdges" value="0"/>
<vectornator:setting key="GuidesVisible" value="1"/>
<vectornator:setting key="DisplayWhiteBackground" value="0"/>
<vectornator:setting key="doHistoryDisabled" value="0"/>
<vectornator:setting key="SnapToGuides" value="1"/>
<vectornator:setting key="TimeLapseWatermarkDisabled" value="0"/>
<vectornator:setting key="Units" value="Points"/>
<vectornator:setting key="DynamicGuides" value="0"/>
<vectornator:setting key="IsolateActiveLayer" value="0"/>
<vectornator:setting key="SnapToGrid" value="0"/>
</metadata>
<defs/>
<g id="Layer 1" vectornator:layerName="Layer 1">
<path d="M447.929+625.009C447.929+638.073+458.523+648.663+471.583+648.663L544.26+648.663L447.929+544.767L447.929+625.009Z" opacity="1" fill="#0066b2"/>
<path d="M547.06+432.548C547.06+423.308+554.578+415.795+563.819+415.795L610.638+415.795C619.877+415.795+627.4+423.308+627.4+432.548L627.4+438.528L547.06+438.528L547.06+432.548ZM654.308+438.528L641.195+438.528L641.195+432.548C641.195+415.698+627.49+401.993+610.638+401.993L563.819+401.993C546.969+401.993+533.259+415.698+533.259+432.548L533.259+438.528L514.411+438.528L514.411+431.356L483.065+431.356L483.065+438.528L471.582+438.528C458.522+438.528+447.928+449.118+447.928+462.182L447.928+544.767L523.112+577.66C523.112+577.66+576.024+495.305+654.308+438.528" opacity="1" fill="#008ed3"/>
<path d="M705.139+518.674L675.407+518.674L675.407+492.654L705.139+492.654L705.139+518.674Z" opacity="1" fill="#00bff2"/>
<path d="M767.334+590.395L737.601+590.395L737.601+564.376L767.334+564.376L767.334+590.395Z" opacity="1" fill="#008ed3"/>
<path d="M684.041+564.667L654.31+564.667L654.31+538.647L684.041+538.647L684.041+564.667Z" opacity="1" fill="#00bff2"/>
<path d="M799.699+627.298L769.966+627.298L769.966+601.277L799.699+601.277L799.699+627.298Z" opacity="1" fill="#0066b2"/>
<path d="M705.139+518.673L675.407+518.673L675.407+492.655L705.139+492.655L705.139+518.673ZM701.229+626.455L671.497+626.455L671.497+600.435L701.229+600.435L701.229+626.455ZM654.309+538.647L684.042+538.647L684.042+564.667L654.309+564.667L654.309+538.647ZM707.468+590.672L707.468+564.652L726.526+564.652L726.526+462.182C726.526+449.118+715.936+438.528+702.876+438.528L700.242+438.528L737.205+395.54C737.205+395.54+704.679+407.863+656.974+471.19C621.495+518.284+601.456+542.477+544.26+648.663L702.876+648.663C715.936+648.663+726.526+638.073+726.526+625.009L726.526+590.672L707.468+590.672Z" opacity="1" fill="#00bff2"/>
<path d="M663.663+428.829C665.745+428.615+669.851+428.752+669.739+429.086C649.964+486.718+598.422+539.465+529.681+572.698C529.61+572.732+630.348+522.917+663.663+428.829" opacity="1" fill="#6c67fc"/>
<path d="M669.403+402.768L668.04+409.963L663.347+412.298L663.8+410.486C663.927+409.976+663.485+409.538+662.819+409.51L662.668+409.503C662.001+409.476+661.351+409.871+661.224+410.38L660.53+413.156C660.484+413.341+660.512+413.516+660.599+413.665L644.729+421.564L644.281+423.357L661.499+418.164L665.513+418.33C665.513+418.33+664.347+422.08+664.346+423.308C664.345+424.535+664.36+425.705+664.36+425.705L654.192+430.253L653.614+432.567L664.137+430.848C664.162+431.389+664.265+432.669+664.714+432.969C664.721+433.002+664.732+433.026+664.748+433.026C664.774+433.027+664.8+433.026+664.827+433.021C664.851+433.028+664.876+433.032+664.901+433.032C664.918+433.033+664.94+433.011+664.965+432.98C665.551+432.721+666.286+431.476+666.577+430.948L676.037+433.492L676.614+431.177L668.904+425.892C668.904+425.892+669.496+424.747+670.102+423.545C670.709+422.343+671.422+418.573+671.422+418.573L675.437+418.738L689.735+425.231L690.182+423.438L678.543+414.406C678.702+414.266+678.816+414.096+678.862+413.912L679.556+411.135C679.683+410.626+679.242+410.187+678.575+410.16L678.424+410.153C677.757+410.125+677.107+410.52+676.98+411.029L676.527+412.841L673.085+410.17L675.309+403.012C675.632+401.973+674.825+397.912+673.614+397.857L673.612+397.857C672.399+397.811+669.599+401.724+669.403+402.768" opacity="1" fill="#2516bc"/>
<g opacity="1">
<path d="M469.093-1.05147e+21C471.28-1.05147e+21+473.011-1.05147e+21+474.284-1.05147e+21C475.558-1.05147e+21+476.194-1.05147e+21+476.194-1.05147e+21C476.194-1.05147e+21+475.304-1.05147e+21+473.522-1.05147e+21C472.569-1.05147e+21+471.296-1.05147e+21+469.702-1.05147e+21L458.312-1.05147e+21L458.312-1.05147e+21L469.093-1.05147e+21ZM453.647-1.05147e+21L469.585-1.05147e+21C472.21-1.05147e+21+474.374-1.05147e+21+476.077-1.05147e+21C479.312-1.05147e+21+480.929-1.05147e+21+480.929-1.05147e+21C480.929-1.05147e+21+480.503-1.05147e+21+479.651-1.05147e+21C478.8-1.05147e+21+477.608-1.05147e+21+476.077-1.05147e+21C477.421-1.05147e+21+478.433-1.05147e+21+479.112-1.05147e+21C479.792-1.05147e+21+480.171-1.05147e+21+480.249-1.05147e+21L480.413-1.05147e+21C480.46-1.05147e+21+480.569-1.05147e+21+480.741-1.05147e+21C481.022-1.05147e+21+481.522-1.05147e+21+482.241-1.05147e+21L482.241-1.05147e+21L476.522-1.05147e+21C476.366-1.05147e+21+476.241-1.05147e+21+476.147-1.05147e+21C476.054-1.05147e+21+475.976-1.05147e+21+475.913-1.05147e+21L475.632-1.05147e+21C475.522-1.05147e+21+474.687-1.05147e+21+473.124-1.05147e+21C472.233-1.05147e+21+470.835-1.05147e+21+468.929-1.05147e+21L458.312-1.05147e+21L458.312-1.05147e+21L453.647-1.05147e+21Z" opacity="1" fill="#00aeef"/>
<path d="M487.187-1.05147e+21L491.476-1.05147e+21L491.476-1.05147e+21L487.187-1.05147e+21ZM487.187-1.05147e+21L491.476-1.05147e+21L491.476-1.05147e+21L487.187-1.05147e+21Z" opacity="1" fill="#00aeef"/>
<path d="M506.71-1.05147e+21C508.679-1.05147e+21+510.397-1.05147e+21+511.866-1.05147e+21C512.663-1.05147e+21+513.476-1.05147e+21+514.304-1.05147e+21L514.304-1.05147e+21L518.194-1.05147e+21L518.194-1.05147e+21C518.194-1.05147e+21+517.726-1.05147e+21+516.788-1.05147e+21C515.038-1.05147e+21+511.733-1.05147e+21+506.874-1.05147e+21C504.171-1.05147e+21+501.897-1.05147e+21+500.054-1.05147e+21C498.21-1.05147e+21+497.179-1.05147e+21+496.96-1.05147e+21L501.249-1.05147e+21C501.452-1.05147e+21+501.858-1.05147e+21+502.468-1.05147e+21C503.421-1.05147e+21+504.921-1.05147e+21+506.968-1.05147e+21C510.202-1.05147e+21+512.319-1.05147e+21+513.319-1.05147e+21C513.913-1.05147e+21+514.187-1.05147e+21+514.14-1.05147e+21C513.296-1.05147e+21+512.28-1.05147e+21+511.093-1.05147e+21C509.905-1.05147e+21+508.335-1.05147e+21+506.382-1.05147e+21C503.663-1.05147e+21+501.284-1.05147e+21+499.245-1.05147e+21C497.206-1.05147e+21+496.187-1.05147e+21+496.187-1.05147e+21C496.187-1.05147e+21+497.214-1.05147e+21+499.269-1.05147e+21C501.323-1.05147e+21+503.804-1.05147e+21+506.71-1.05147e+21ZM514.304-1.05147e+21C514.304-1.05147e+21+513.663-1.05147e+21+512.382-1.05147e+21C511.101-1.05147e+21+509.468-1.05147e+21+507.483-1.05147e+21C504.515-1.05147e+21+502.483-1.05147e+21+501.39-1.05147e+21C500.812-1.05147e+21+500.522-1.05147e+21+500.522-1.05147e+21C500.522-1.05147e+21+501.097-1.05147e+21+502.245-1.05147e+21C503.394-1.05147e+21+504.937-1.05147e+21+506.874-1.05147e+21C509.905-1.05147e+21+512.038-1.05147e+21+513.272-1.05147e+21C513.96-1.05147e+21+514.304-1.05147e+21+514.304-1.05147e+21Z" opacity="1" fill="#00aeef"/>
<path d="M524.546-1.05147e+21L528.765-1.05147e+21L528.765-1.05147e+21C529.765-1.05147e+21+530.663-1.05147e+21+531.46-1.05147e+21C532.819-1.05147e+21+534.515-1.05147e+21+536.546-1.05147e+21C540.187-1.05147e+21+542.655-1.05147e+21+543.952-1.05147e+21C544.655-1.05147e+21+545.007-1.05147e+21+545.007-1.05147e+21L545.007-1.05147e+21L540.671-1.05147e+21L540.671-1.05147e+21C540.671-1.05147e+21+540.437-1.05147e+21+539.968-1.05147e+21C539.202-1.05147e+21+537.765-1.05147e+21+535.655-1.05147e+21C533.905-1.05147e+21+532.319-1.05147e+21+530.897-1.05147e+21C529.476-1.05147e+21+528.765-1.05147e+21+528.765-1.05147e+21L528.765-1.05147e+21L524.546-1.05147e+21Z" opacity="1" fill="#00aeef"/>
</g>
<g opacity="1">
<path d="M617.934-1.04593e+21C620.76-1.04593e+21+622.698-1.04593e+21+623.749-1.04593e+21C624.799-1.04593e+21+625.324-1.04593e+21+625.324-1.04593e+21C625.324-1.04593e+21+624.945-1.04593e+21+624.187-1.04593e+21C622.987-1.04593e+21+620.918-1.04593e+21+617.981-1.04593e+21C615.375-1.04593e+21+613.481-1.04593e+21+612.296-1.04593e+21C611.112-1.04593e+21+610.52-1.04593e+21+610.52-1.04593e+21C610.52-1.04593e+21+611.112-1.04593e+21+612.296-1.04593e+21C613.481-1.04593e+21+615.36-1.04593e+21+617.934-1.04593e+21ZM618.099-1.04593e+21C621.368-1.04593e+21+624.131-1.04593e+21+626.39-1.04593e+21C628.648-1.04593e+21+629.777-1.04593e+21+629.777-1.04593e+21C629.777-1.04593e+21+628.782-1.04593e+21+626.792-1.04593e+21C624.803-1.04593e+21+621.715-1.04593e+21+617.531-1.04593e+21C614.041-1.04593e+21+611.27-1.04593e+21+609.217-1.04593e+21C607.164-1.04593e+21+606.138-1.04593e+21+606.138-1.04593e+21C606.138-1.04593e+21+607.22-1.04593e+21+609.383-1.04593e+21C611.546-1.04593e+21+614.452-1.04593e+21+618.099-1.04593e+21Z" opacity="1" fill="#00aeef"/>
<path d="M639.109-1.04593e+21L639.109-1.04593e+21C639.109-1.04593e+21+639.314-1.04593e+21+639.725-1.04593e+21C640.483-1.04593e+21+641.896-1.04593e+21+643.965-1.04593e+21C646.933-1.04593e+21+648.955-1.04593e+21+650.028-1.04593e+21C650.613-1.04593e+21+650.905-1.04593e+21+650.905-1.04593e+21L650.905-1.04593e+21L655.168-1.04593e+21L655.168-1.04593e+21L651.142-1.04593e+21L651.189-1.04593e+21C650.636-1.04593e+21+649.949-1.04593e+21+649.128-1.04593e+21C647.502-1.04593e+21+645.528-1.04593e+21+643.207-1.04593e+21C639.591-1.04593e+21+637.127-1.04593e+21+635.817-1.04593e+21C635.106-1.04593e+21+634.751-1.04593e+21+634.751-1.04593e+21L634.751-1.04593e+21L639.109-1.04593e+21Z" opacity="1" fill="#00aeef"/>
<path d="M661.942-1.04593e+21L665.993-1.04593e+21L665.993-1.04593e+21C666.324-1.04593e+21+667.138-1.04593e+21+668.432-1.04593e+21C669.727-1.04593e+21+671.22-1.04593e+21+672.909-1.04593e+21C672.988-1.04593e+21+673.122-1.04593e+21+673.312-1.04593e+21C673.501-1.04593e+21+673.825-1.04593e+21+674.283-1.04593e+21L674.283-1.04593e+21C674.03-1.04593e+21+673.797-1.04593e+21+673.584-1.04593e+21C673.371-1.04593e+21+673.138-1.04593e+21+672.885-1.04593e+21C670.738-1.04593e+21+669.088-1.04593e+21+667.935-1.04593e+21C666.782-1.04593e+21+666.206-1.04593e+21+666.206-1.04593e+21L666.206-1.04593e+21L661.942-1.04593e+21Z" opacity="1" fill="#00aeef"/>
<path d="M680.512-1.04593e+21C680.639-1.04593e+21+680.994-1.04593e+21+681.578-1.04593e+21C682.652-1.04593e+21+684.515-1.04593e+21+687.168-1.04593e+21C688.747-1.04593e+21+690.137-1.04593e+21+691.337-1.04593e+21C692.537-1.04593e+21+693.137-1.04593e+21+693.137-1.04593e+21C693.137-1.04593e+21+692.656-1.04593e+21+691.692-1.04593e+21C691.076-1.04593e+21+689.861-1.04593e+21+688.045-1.04593e+21L684.658-1.04593e+21C682.494-1.04593e+21+680.899-1.04593e+21+679.873-1.04593e+21C678.041-1.04593e+21+677.125-1.04593e+21+677.125-1.04593e+21C677.125-1.04593e+21+677.99-1.04593e+21+679.719-1.04593e+21C681.448-1.04593e+21+683.773-1.04593e+21+686.695-1.04593e+21C690.516-1.04593e+21+693.271-1.04593e+21+694.961-1.04593e+21C696.019-1.04593e+21+696.532-1.04593e+21+696.501-1.04593e+21L692.474-1.04593e+21C692.395-1.04593e+21+692.056-1.04593e+21+691.455-1.04593e+21C690.476-1.04593e+21+688.779-1.04593e+21+686.363-1.04593e+21C684.752-1.04593e+21+683.532-1.04593e+21+682.703-1.04593e+21C681.874-1.04593e+21+681.46-1.04593e+21+681.46-1.04593e+21C681.46-1.04593e+21+682.005-1.04593e+21+683.094-1.04593e+21C683.726-1.04593e+21+684.658-1.04593e+21+685.889-1.04593e+21L688.708-1.04593e+21C691.771-1.04593e+21+693.824-1.04593e+21+694.866-1.04593e+21C696.524-1.04593e+21+697.353-1.04593e+21+697.353-1.04593e+21C697.353-1.04593e+21+696.497-1.04593e+21+694.783-1.04593e+21C693.07-1.04593e+21+690.461-1.04593e+21+686.955-1.04593e+21C683.181-1.04593e+21+680.508-1.04593e+21+678.937-1.04593e+21C677.366-1.04593e+21+676.525-1.04593e+21+676.415-1.04593e+21L680.512-1.04593e+21Z" opacity="1" fill="#00aeef"/>
</g>
<g opacity="1">
<path d="M471.765+697.484C474.363+697.484+476.418+696.965+477.93+695.926C479.442+694.887+480.198+693.013+480.198+690.304C480.198+687.391+479.141+685.405+477.026+684.348C475.894+683.791+474.382+683.513+472.489+683.513L458.963+683.513L458.963+697.484L471.765+697.484ZM453.424+678.753L472.35+678.753C475.467+678.753+478.037+679.208+480.059+680.117C483.9+681.861+485.821+685.081+485.821+689.775C485.821+692.224+485.315+694.228+484.304+695.787C483.292+697.345+481.878+698.598+480.059+699.544C481.655+700.193+482.856+701.047+483.664+702.105C484.471+703.162+484.921+704.878+485.013+707.253L485.208+712.736C485.264+714.295+485.394+715.455+485.598+716.215C485.932+717.514+486.526+718.349+487.379+718.72L487.379+719.639L480.588+719.639C480.403+719.286+480.254+718.832+480.143+718.275C480.031+717.718+479.939+716.642+479.864+715.046L479.531+708.228C479.401+705.556+478.408+703.765+476.552+702.856C475.495+702.355+473.834+702.105+471.571+702.105L458.963+702.105L458.963+719.639L453.424+719.639L453.424+678.753Z" opacity="1" fill="#00aeef"/>
<path d="M493.252+689.97L498.345+689.97L498.345+719.639L493.252+719.639L493.252+689.97ZM493.252+678.753L498.345+678.753L498.345+684.431L493.252+684.431L493.252+678.753Z" opacity="1" fill="#00aeef"/>
<path d="M516.436+689.302C518.774+689.302+520.815+689.877+522.559+691.027C523.505+691.677+524.47+692.623+525.453+693.866L525.453+690.109L530.073+690.109L530.073+717.217C530.073+721.003+529.517+723.99+528.404+726.179C526.325+730.224+522.401+732.247+516.631+732.247C513.421+732.247+510.721+731.528+508.531+730.09C506.342+728.652+505.117+726.402+504.858+723.34L509.951+723.34C510.192+724.676+510.675+725.706+511.398+726.43C512.53+727.543+514.311+728.1+516.742+728.1C520.583+728.1+523.097+726.745+524.284+724.036C524.989+722.441+525.314+719.592+525.259+715.492C524.257+717.013+523.051+718.145+521.64+718.887C520.23+719.629+518.365+720.001+516.046+720.001C512.818+720.001+509.993+718.855+507.571+716.563C505.15+714.272+503.939+710.482+503.939+705.194C503.939+700.203+505.159+696.306+507.599+693.504C510.039+690.703+512.985+689.302+516.436+689.302ZM525.453+704.609C525.453+700.917+524.693+698.18+523.171+696.399C521.65+694.618+519.711+693.727+517.354+693.727C513.829+693.727+511.417+695.378+510.118+698.681C509.431+700.444+509.088+702.754+509.088+705.611C509.088+708.97+509.77+711.526+511.134+713.279C512.498+715.033+514.33+715.909+516.631+715.909C520.23+715.909+522.763+714.286+524.229+711.039C525.045+709.202+525.453+707.059+525.453+704.609Z" opacity="1" fill="#00aeef"/>
<path d="M537.616+678.614L542.626+678.614L542.626+693.866C543.813+692.363+544.88+691.306+545.826+690.693C547.441+689.636+549.454+689.107+551.866+689.107C556.189+689.107+559.121+690.619+560.661+693.644C561.496+695.295+561.913+697.586+561.913+700.518L561.913+719.639L556.764+719.639L556.764+700.852C556.764+698.663+556.486+697.058+555.929+696.037C555.02+694.404+553.313+693.588+550.808+693.588C548.73+693.588+546.847+694.302+545.158+695.731C543.47+697.16+542.626+699.859+542.626+703.83L542.626+719.639L537.616+719.639L537.616+678.614Z" opacity="1" fill="#00aeef"/>
<path d="M570.319+681.509L575.384+681.509L575.384+689.831L580.143+689.831L580.143+693.922L575.384+693.922L575.384+713.377C575.384+714.416+575.737+715.111+576.442+715.464C576.831+715.668+577.481+715.77+578.39+715.77C578.631+715.77+578.891+715.765+579.169+715.756C579.447+715.747+579.772+715.724+580.143+715.687L580.143+719.639C579.568+719.806+578.97+719.926+578.348+720.001C577.727+720.075+577.054+720.112+576.33+720.112C573.992+720.112+572.406+719.514+571.571+718.317C570.736+717.12+570.319+715.566+570.319+713.655L570.319+693.922L566.283+693.922L566.283+689.831L570.319+689.831L570.319+681.509Z" opacity="1" fill="#00aeef"/>
<path d="M631.41+678.753L631.41+683.624L617.633+683.624L617.633+719.639L612.011+719.639L612.011+683.624L598.234+683.624L598.234+678.753L631.41+678.753Z" opacity="1" fill="#00aeef"/>
<path d="M647.636+716.41C650.957+716.41+653.235+715.153+654.469+712.639C655.703+710.125+656.32+707.328+656.32+704.248C656.32+701.464+655.874+699.201+654.984+697.457C653.573+694.711+651.143+693.337+647.692+693.337C644.63+693.337+642.404+694.506+641.012+696.844C639.62+699.182+638.925+702.003+638.925+705.305C638.925+708.478+639.62+711.122+641.012+713.237C642.404+715.353+644.612+716.41+647.636+716.41ZM647.831+688.968C651.672+688.968+654.919+690.248+657.572+692.809C660.225+695.369+661.552+699.136+661.552+704.108C661.552+708.914+660.383+712.885+658.045+716.021C655.707+719.156+652.08+720.724+647.163+720.724C643.062+720.724+639.806+719.337+637.394+716.563C634.982+713.789+633.776+710.065+633.776+705.389C633.776+700.379+635.047+696.39+637.589+693.421C640.131+690.452+643.545+688.968+647.831+688.968Z" opacity="1" fill="#00aeef"/>
<path d="M672.518+689.831L672.518+709.619C672.518+711.141+672.759+712.384+673.241+713.349C674.132+715.13+675.793+716.021+678.223+716.021C681.712+716.021+684.087+714.462+685.348+711.345C686.035+709.675+686.378+707.383+686.378+704.47L686.378+689.831L691.388+689.831L691.388+719.639L686.656+719.639L686.712+715.241C686.063+716.373+685.256+717.329+684.291+718.108C682.38+719.667+680.06+720.446+677.333+720.446C673.084+720.446+670.189+719.026+668.649+716.188C667.814+714.666+667.397+712.634+667.397+710.092L667.397+689.831L672.518+689.831Z" opacity="1" fill="#00aeef"/>
<path d="M699.348+689.831L704.107+689.831L704.107+694.98C704.497+693.978+705.452+692.758+706.974+691.32C708.495+689.882+710.249+689.163+712.234+689.163C712.327+689.163+712.485+689.172+712.707+689.191C712.93+689.209+713.31+689.246+713.848+689.302L713.848+694.59C713.551+694.534+713.278+694.497+713.027+694.479C712.777+694.46+712.503+694.451+712.206+694.451C709.683+694.451+707.744+695.263+706.389+696.886C705.035+698.51+704.358+700.379+704.358+702.494L704.358+719.639L699.348+719.639L699.348+689.831Z" opacity="1" fill="#00aeef"/>
<path d="M721.168+710.287C721.317+711.957+721.734+713.237+722.421+714.128C723.682+715.742+725.872+716.549+728.989+716.549C730.844+716.549+732.477+716.146+733.887+715.339C735.298+714.532+736.003+713.284+736.003+711.595C736.003+710.315+735.437+709.341+734.305+708.673C733.581+708.265+732.153+707.792+730.019+707.253L726.039+706.252C723.497+705.621+721.623+704.916+720.417+704.136C718.264+702.782+717.188+700.908+717.188+698.514C717.188+695.694+718.204+693.412+720.236+691.668C722.268+689.923+725+689.051+728.432+689.051C732.923+689.051+736.16+690.369+738.146+693.003C739.389+694.673+739.992+696.473+739.955+698.403L735.223+698.403C735.131+697.271+734.732+696.241+734.027+695.314C732.876+693.996+730.882+693.337+728.043+693.337C726.15+693.337+724.717+693.699+723.743+694.423C722.769+695.147+722.281+696.102+722.281+697.29C722.281+698.588+722.922+699.628+724.202+700.407C724.944+700.871+726.039+701.279+727.486+701.631L730.798+702.439C734.398+703.311+736.81+704.155+738.034+704.971C739.983+706.252+740.957+708.265+740.957+711.011C740.957+713.664+739.95+715.956+737.937+717.885C735.924+719.815+732.858+720.78+728.739+720.78C724.304+720.78+721.164+719.773+719.317+717.76C717.471+715.747+716.483+713.256+716.353+710.287L721.168+710.287Z" opacity="1" fill="#00aeef"/>
</g>
</g>
</svg>
