<?xml version="1.0" encoding="UTF-8" standalone="no"?><!DOCTYPE svg PUBLIC "-//W3C//DTD SVG 1.1//EN" "http://www.w3.org/Graphics/SVG/1.1/DTD/svg11.dtd"><svg width="100%" height="100%" viewBox="0 0 1466 1403" version="1.1" xmlns="http://www.w3.org/2000/svg" xmlns:xlink="http://www.w3.org/1999/xlink" xml:space="preserve" xmlns:serif="http://www.serif.com/" style="fill-rule:evenodd;clip-rule:evenodd;stroke-linejoin:round;stroke-miterlimit:2;"><path d="M0.004,956.121c0,54.433 44.142,98.558 98.559,98.558l302.82,0l-401.379,-432.9l0,334.342Z" style="fill:#0066b2;fill-rule:nonzero;"/><path d="M413.05,154.2c-0,-38.5 31.325,-69.804 69.829,-69.804l195.079,-0c38.496,-0 69.842,31.304 69.842,69.804l0,24.917l-334.75,-0l-0,-24.917Zm446.867,24.917l-54.638,-0l0,-24.917c0,-70.208 -57.104,-127.312 -127.321,-127.312l-195.079,-0c-70.208,-0 -127.333,57.104 -127.333,127.312l-0,24.917l-78.534,-0l0,-29.884l-130.608,0l0,29.884l-47.846,-0c-54.416,-0 -98.558,44.125 -98.558,98.558l-0,344.104l313.267,137.054c-0,0 220.466,-343.145 546.65,-579.716" style="fill:#008ed3;fill-rule:nonzero;"/><rect x="947.829" y="404.642" width="123.883" height="108.417" style="fill:#00bff2;fill-rule:nonzero;"/><rect x="1206.97" y="703.483" width="123.887" height="108.413" style="fill:#008ed3;fill-rule:nonzero;"/><rect x="859.925" y="596.279" width="123.879" height="108.417" style="fill:#00bff2;fill-rule:nonzero;"/><rect x="1341.83" y="857.238" width="123.887" height="108.421" style="fill:#0066b2;fill-rule:nonzero;"/><path d="M1071.71,513.054l-123.884,0l0,-108.408l123.884,-0l-0,108.408Zm-16.292,449.092l-123.884,-0l0,-108.417l123.884,0l-0,108.417Zm-195.5,-365.867l123.887,0l0,108.417l-123.887,-0l-0,-108.417Zm221.496,216.771l-0,-108.417l79.408,0l-0,-426.958c-0,-54.433 -44.125,-98.558 -98.542,-98.558l-10.975,-0l154.013,-179.117c-0,0 -135.525,51.346 -334.296,315.208c-147.829,196.225 -231.325,297.029 -469.642,739.471l660.9,0c54.417,0 98.542,-44.125 98.542,-98.558l-0,-143.071l-79.408,0Z" style="fill:#00bff2;fill-rule:nonzero;"/><path d="M898.896,138.704c8.675,-0.892 25.783,-0.321 25.317,1.071c-82.396,240.133 -297.155,459.913 -583.575,598.383c-0.296,0.142 419.445,-207.42 558.258,-599.454" style="fill:#6c67fc;fill-rule:nonzero;"/><path d="M922.813,30.117l-5.68,29.979l-19.554,9.729l1.888,-7.55c0.529,-2.125 -1.313,-3.95 -4.088,-4.067l-0.629,-0.029c-2.779,-0.112 -5.487,1.533 -6.017,3.654l-2.891,11.567c-0.192,0.771 -0.075,1.5 0.287,2.121l-66.125,32.912l-1.867,7.471l71.742,-21.637l16.725,0.691c0,0 -4.858,15.625 -4.862,20.742c-0.005,5.112 0.058,9.987 0.058,9.987l-42.367,18.95l-2.408,9.642l43.846,-7.162c0.104,2.254 0.533,7.587 2.404,8.837c0.029,0.138 0.075,0.238 0.142,0.238c0.108,0.004 0.216,-0 0.329,-0.021c0.1,0.029 0.204,0.046 0.308,0.046c0.071,0.004 0.163,-0.088 0.267,-0.217c2.442,-1.079 5.504,-6.267 6.716,-8.467l39.417,10.6l2.404,-9.645l-32.125,-22.021c0,-0 2.467,-4.771 4.992,-9.779c2.529,-5.009 5.5,-20.717 5.5,-20.717l16.729,0.687l59.575,27.054l1.863,-7.47l-48.496,-37.634c0.662,-0.583 1.137,-1.291 1.329,-2.058l2.892,-11.571c0.529,-2.121 -1.309,-3.95 -4.088,-4.062l-0.629,-0.029c-2.779,-0.117 -5.488,1.529 -6.017,3.649l-1.887,7.551l-14.342,-11.13l9.267,-29.825c1.346,-4.329 -2.017,-21.25 -7.063,-21.479l-0.008,0c-5.054,-0.192 -16.721,16.113 -17.538,20.463" style="fill:#2516bc;fill-rule:nonzero;"/><g><path d="M99.321,1258.1c10.825,0 19.387,-2.163 25.687,-6.492c6.3,-4.329 9.45,-12.137 9.45,-23.425c0,-12.137 -4.404,-20.412 -13.216,-24.816c-4.717,-2.321 -11.017,-3.479 -18.905,-3.479l-56.358,-0l0,58.212l53.342,0Zm-76.421,-78.046l78.858,0c12.988,0 23.696,1.896 32.121,5.683c16.004,7.267 24.009,20.684 24.009,40.242c-0,10.204 -2.109,18.554 -6.321,25.05c-4.217,6.492 -10.109,11.713 -17.688,15.654c6.65,2.704 11.654,6.263 15.021,10.671c3.363,4.404 5.238,11.554 5.621,21.45l0.812,22.846c0.234,6.496 0.775,11.329 1.625,14.496c1.392,5.412 3.867,8.892 7.421,10.437l0,3.829l-28.296,0c-0.77,-1.47 -1.391,-3.362 -1.854,-5.683c-0.466,-2.321 -0.85,-6.804 -1.162,-13.454l-1.388,-28.408c-0.541,-11.134 -4.679,-18.596 -12.412,-22.384c-4.405,-2.087 -11.325,-3.129 -20.754,-3.129l-52.534,0l0,73.058l-23.079,0l-0,-170.358Z" style="fill:#00aeef;fill-rule:nonzero;"/><path d="M188.85,1226.79l21.221,-0l-0,123.62l-21.221,0.001l-0,-123.621Zm-0,-46.738l21.221,0l-0,23.659l-21.221,-0l-0,-23.659Z" style="fill:#00aeef;fill-rule:nonzero;"/><path d="M285.45,1224.01c9.742,0 18.246,2.396 25.513,7.188c3.941,2.708 7.962,6.65 12.058,11.829l-0,-15.654l19.25,-0l-0,112.95c-0,15.775 -2.317,28.221 -6.954,37.341c-8.663,16.855 -25.013,25.284 -49.055,25.284c-13.374,-0 -24.625,-2.996 -33.749,-8.988c-9.121,-5.991 -14.226,-15.366 -15.305,-28.125l21.221,0c1.004,5.567 3.017,9.859 6.029,12.875c4.717,4.638 12.138,6.959 22.267,6.959c16.004,-0 26.479,-5.646 31.425,-16.934c2.938,-6.646 4.292,-18.516 4.063,-35.6c-4.175,6.338 -9.2,11.054 -15.08,14.146c-5.875,3.092 -13.645,4.642 -23.308,4.642c-13.45,-0 -25.221,-4.775 -35.312,-14.325c-10.088,-9.546 -15.134,-25.338 -15.134,-47.371c0,-20.796 5.084,-37.033 15.25,-48.708c10.167,-11.671 22.442,-17.509 36.821,-17.509Zm37.571,63.78c-0,-15.384 -3.167,-26.788 -9.508,-34.209c-6.338,-7.421 -14.417,-11.133 -24.238,-11.133c-14.688,-0 -24.738,6.879 -30.15,20.642c-2.863,7.345 -4.292,16.97 -4.292,28.875c0,13.995 2.842,24.645 8.525,31.949c5.684,7.309 13.317,10.959 22.904,10.959c14.996,-0 25.551,-6.763 31.659,-20.292c3.4,-7.654 5.1,-16.583 5.1,-26.791Z" style="fill:#00aeef;fill-rule:nonzero;"/><path d="M373.7,1179.48l20.875,0l-0,63.55c4.946,-6.262 9.392,-10.667 13.333,-13.221c6.73,-4.404 15.117,-6.608 25.167,-6.608c18.013,-0 30.229,6.3 36.646,18.904c3.479,6.879 5.216,16.425 5.216,28.642l0,79.67l-21.454,0l0,-78.279c0,-9.12 -1.158,-15.808 -3.479,-20.062c-3.787,-6.804 -10.9,-10.204 -21.337,-10.204c-8.659,-0 -16.505,2.975 -23.542,8.929c-7.033,5.954 -10.55,17.2 -10.55,33.746l-0,65.87l-20.875,0l-0,-170.937Z" style="fill:#00aeef;fill-rule:nonzero;"/><path d="M509.963,1191.54l21.104,-0.001l-0,34.676l19.829,-0l-0,17.045l-19.829,0l-0,81.063c-0,4.329 1.47,7.225 4.408,8.696c1.621,0.85 4.329,1.275 8.117,1.275c1.004,-0 2.087,-0.021 3.246,-0.059c1.158,-0.037 2.512,-0.133 4.058,-0.287l-0,16.466c-2.396,0.696 -4.888,1.196 -7.479,1.509c-2.588,0.308 -5.392,0.462 -8.409,0.462c-9.741,0 -16.35,-2.491 -19.829,-7.479c-3.479,-4.987 -5.216,-11.462 -5.216,-19.425l-0,-82.221l-16.817,0l-0,-17.045l16.817,-0l-0,-34.676Z" style="fill:#00aeef;fill-rule:nonzero;"/><path d="M764.508,1180.05l0,20.296l-57.404,0l0,150.062l-23.425,0l0,-150.062l-57.404,0l0,-20.296l138.233,0Z" style="fill:#00aeef;fill-rule:nonzero;"/><path d="M832.117,1336.96c13.837,0 23.329,-5.237 28.471,-15.712c5.141,-10.475 7.712,-22.129 7.712,-34.963c0,-11.6 -1.858,-21.029 -5.567,-28.295c-5.879,-11.442 -16.004,-17.167 -30.383,-17.167c-12.758,-0 -22.033,4.871 -27.833,14.612c-5.8,9.742 -8.696,21.496 -8.696,35.254c-0,13.221 2.896,24.238 8.696,33.05c5.8,8.817 15,13.221 27.6,13.221Zm0.812,-114.341c16.004,-0 29.534,5.333 40.588,16.004c11.054,10.667 16.583,26.362 16.583,47.079c0,20.025 -4.871,36.571 -14.613,49.638c-9.741,13.062 -24.854,19.595 -45.341,19.595c-17.088,0 -30.654,-5.779 -40.704,-17.337c-10.05,-11.559 -15.075,-27.075 -15.075,-46.559c-0,-20.875 5.296,-37.495 15.887,-49.866c10.592,-12.371 24.817,-18.554 42.675,-18.554Z" style="fill:#00aeef;fill-rule:nonzero;"/><path d="M935.792,1226.21l-0,82.45c-0,6.341 1.004,11.52 3.012,15.541c3.713,7.421 10.634,11.134 20.759,11.134c14.537,-0 24.433,-6.496 29.687,-19.484c2.862,-6.958 4.292,-16.508 4.292,-28.646l-0,-60.995l20.875,-0.001l-0,124.2l-19.717,0l0.233,-18.325c-2.704,4.717 -6.066,8.7 -10.087,11.946c-7.963,6.496 -17.629,9.742 -28.992,9.742c-17.704,0 -29.766,-5.917 -36.183,-17.742c-3.479,-6.341 -5.217,-14.808 -5.217,-25.4l0,-84.42l21.338,-0Z" style="fill:#00aeef;fill-rule:nonzero;"/><path d="M1047.58,1226.21l19.829,-0l0,21.454c1.625,-4.175 5.605,-9.259 11.946,-15.25c6.338,-5.992 13.646,-8.988 21.917,-8.988c0.388,0 1.046,0.038 1.971,0.117c0.929,0.075 2.512,0.229 4.754,0.462l0,22.034c-1.237,-0.234 -2.375,-0.388 -3.421,-0.463c-1.041,-0.079 -2.183,-0.116 -3.421,-0.116c-10.512,-0 -18.591,3.383 -24.237,10.145c-5.642,6.767 -8.463,14.554 -8.463,23.367l0,71.438l-20.875,-0.001l0,-124.199Z" style="fill:#00aeef;fill-rule:nonzero;"/><path d="M1138.5,1311.45c0.621,6.958 2.358,12.291 5.221,16.004c5.254,6.725 14.379,10.087 27.367,10.087c7.729,0 14.533,-1.679 20.408,-5.041c5.879,-3.363 8.817,-8.563 8.817,-15.6c-0,-5.333 -2.359,-9.392 -7.076,-12.175c-3.016,-1.7 -8.966,-3.671 -17.858,-5.917l-16.583,-4.171c-10.592,-2.629 -18.4,-5.566 -23.425,-8.816c-8.971,-5.642 -13.454,-13.45 -13.454,-23.425c-0,-11.75 4.233,-21.259 12.7,-28.525c8.466,-7.271 19.85,-10.905 34.15,-10.905c18.712,0 32.2,5.492 40.475,16.467c5.179,6.958 7.691,14.458 7.537,22.5l-19.716,0c-0.384,-4.717 -2.046,-9.008 -4.984,-12.871c-4.796,-5.491 -13.104,-8.237 -24.933,-8.237c-7.888,-0 -13.859,1.508 -17.917,4.525c-4.058,3.016 -6.092,6.996 -6.092,11.946c0,5.408 2.671,9.741 8.005,12.987c3.091,1.933 7.654,3.633 13.683,5.1l13.8,3.367c15,3.633 25.05,7.15 30.15,10.55c8.121,5.337 12.179,13.725 12.179,25.167c0,11.054 -4.196,20.604 -12.583,28.641c-8.388,8.042 -21.163,12.063 -38.325,12.063c-18.479,-0 -31.563,-4.196 -39.259,-12.584c-7.691,-8.387 -11.808,-18.766 -12.35,-31.137l20.063,-0Z" style="fill:#00aeef;fill-rule:nonzero;"/></g></svg>